# File created by Blade
# Date/Time:  Wed Jan 21 19:03:07 2015
# Frame Rate: 120.000 fps
#------------------------------------------------------
:FULLY-SPECIFIED
:DEGREES
2536
root -7.863771 32.844532 -2.862620 43.544437 4.932327 3.720967
RightUpLeg -31.772327 -15.543654 5.300166
RightLeg -5.582032 -0.000000 0.000000
RightFoot -6.297833 6.160466 25.221229
RightToeBase 21.835392 -0.000000 -0.000000
LeftUpLeg -35.636070 7.243703 -1.350233
LeftLeg 2.076873 -0.000000 -0.000000
LeftFoot -5.312096 -5.998354 -8.770935
LeftToeBase 5.413083 -0.000000 -0.000000
Spine -43.655287 -1.777414 1.553238
RightShoulder -18.756983 17.260270 -47.917268
RightArm 4.516181 -19.972262 36.360163
RightForeArm 6.561451 0.000000 -4.531813
RightHand 16.836543 -0.000000 -8.045853
RightHandThumb1 -24.326973 -0.000000 -32.862282
LeftShoulder -13.211542 0.438362 39.321046
LeftArm 21.005831 -15.456577 -31.543126
LeftForeArm 22.294710 -0.000000 1.145448
LeftHand -25.890438 0.000000 16.992124
LeftHandThumb1 -26.253704 0.000000 33.147579
Head -0.702901 -3.840611 6.531179
2537
root -7.869801 32.812696 -2.879540 43.600010 5.201707 3.501749
RightUpLeg -31.789933 -15.342341 5.442805
RightLeg -5.553891 -0.000000 0.000000
RightFoot -6.502760 6.207110 25.214746
RightToeBase 21.811625 -0.000000 -0.000000
LeftUpLeg -35.766113 7.281539 -1.040668
LeftLeg 2.042373 -0.000000 -0.000000
LeftFoot -5.723226 -6.187798 -8.806247
LeftToeBase 5.668148 -0.000000 -0.000000
Spine -43.731668 -1.801622 1.659197
RightShoulder -18.877945 17.207932 -47.891934
RightArm 4.316743 -19.671396 36.440843
RightForeArm 6.397074 -0.000000 -4.715390
RightHand 16.483802 -0.000000 -7.776765
RightHandThumb1 -24.326973 -0.000000 -32.862282
LeftShoulder -13.209200 0.315972 39.434121
LeftArm 21.011344 -15.560074 -31.446782
LeftForeArm 22.417040 0.000000 0.911988
LeftHand -25.944621 0.000000 16.808001
LeftHandThumb1 -26.253704 0.000000 33.147579
Head -1.198308 -3.975313 6.672375
2538
root -7.869889 32.782318 -2.895597 43.617424 5.440064 3.345101
RightUpLeg -31.788079 -15.170506 5.508823
RightLeg -5.491509 -0.000000 0.000000
RightFoot -6.787927 6.235612 25.231439
RightToeBase 21.895565 -0.000000 -0.000000
LeftUpLeg -35.851781 7.265865 -0.790436
LeftLeg 2.007019 -0.000000 -0.000000
LeftFoot -6.086716 -6.298289 -8.669715
LeftToeBase 5.837704 -0.000000 -0.000000
Spine -43.766740 -1.849407 1.699923
RightShoulder -18.984999 17.192314 -47.851489
RightArm 4.090415 -19.447145 36.512070
RightForeArm 6.303871 -0.000000 -4.913085
RightHand 16.303071 -0.000000 -7.360030
RightHandThumb1 -24.326973 -0.000000 -32.862282
LeftShoulder -13.171760 0.161182 39.585026
LeftArm 20.920520 -15.451434 -31.322338
LeftForeArm 22.362217 -0.000000 0.708324
LeftHand -25.943295 -0.000000 16.548401
LeftHandThumb1 -26.253704 0.000000 33.147579
Head -1.657492 -4.110684 6.801668
2539
root -7.867636 32.751828 -2.915858 43.646684 5.638222 3.203039
RightUpLeg -31.778764 -14.895680 5.494083
RightLeg -5.462005 -0.000000 0.000000
RightFoot -7.128149 6.128107 25.245339
RightToeBase 21.983068 -0.000000 -0.000000
LeftUpLeg -35.961331 7.303357 -0.601173
LeftLeg 1.967114 -0.000000 -0.000000
LeftFoot -6.370867 -6.486622 -8.687170
LeftToeBase 5.910020 -0.000000 -0.000000
Spine -43.793981 -1.860674 1.684153
RightShoulder -19.100261 17.171836 -47.818454
RightArm 3.840638 -19.213046 36.598265
RightForeArm 6.149258 0.000000 -5.104286
RightHand 15.847183 -0.000000 -6.958245
RightHandThumb1 -24.326973 -0.000000 -32.862282
LeftShoulder -13.138475 0.086112 39.692736
LeftArm 20.939832 -15.424722 -31.207498
LeftForeArm 22.367355 -0.000000 0.453887
LeftHand -26.002692 0.000000 16.301984
LeftHandThumb1 -26.253704 0.000000 33.147579
Head -2.124435 -4.250078 6.938250
2540
root -7.862555 32.722911 -2.935937 43.655078 5.837017 3.088578
RightUpLeg -31.750413 -14.684200 5.492356
RightLeg -5.449315 -0.000000 0.000000
RightFoot -7.476126 6.017040 25.246566
RightToeBase 22.112316 -0.000000 -0.000000
LeftUpLeg -36.029905 7.267275 -0.407586
LeftLeg 1.887813 -0.000000 -0.000000
LeftFoot -6.657966 -6.417196 -8.755150
LeftToeBase 5.738360 -0.000000 -0.000000
Spine -43.799624 -1.911359 1.679092
RightShoulder -19.191228 17.062981 -47.750072
RightArm 3.701991 -18.965801 36.696038
RightForeArm 6.169226 0.000000 -5.357776
RightHand 15.584419 -0.000000 -6.470779
RightHandThumb1 -24.326973 -0.000000 -32.862282
LeftShoulder -13.109207 0.039240 39.807487
LeftArm 20.958996 -15.360513 -31.112175
LeftForeArm 22.346685 0.000000 0.127016
LeftHand -25.973460 -0.000000 15.957644
LeftHandThumb1 -26.253704 0.000000 33.147579
Head -2.535259 -4.336844 7.036071
2541
root -7.852894 32.695567 -2.957805 43.634815 6.020630 3.010469
RightUpLeg -31.693438 -14.509413 5.478331
RightLeg -5.470798 -0.000000 0.000000
RightFoot -7.852987 5.817250 25.258588
RightToeBase 22.315929 -0.000000 -0.000000
LeftUpLeg -36.051061 7.154320 -0.189359
LeftLeg 1.813919 -0.000000 -0.000000
LeftFoot -6.909069 -6.457847 -8.934537
LeftToeBase 5.909764 -0.000000 -0.000000
Spine -43.766660 -1.958129 1.624361
RightShoulder -19.296077 17.048183 -47.714058
RightArm 3.478620 -18.693042 36.823910
RightForeArm 6.080660 -0.000000 -5.608999
RightHand 15.299978 -0.000000 -6.274653
RightHandThumb1 -24.326973 -0.000000 -32.862282
LeftShoulder -13.051474 -0.025663 39.926489
LeftArm 20.939941 -15.277099 -31.045486
LeftForeArm 22.243580 -0.000000 -0.168816
LeftHand -25.828466 -0.000000 15.768949
LeftHandThumb1 -26.253704 0.000000 33.147579
Head -2.925037 -4.449877 7.145632
